HIERARCHY
ROOT Hip
{
	OFFSET 0.00 0.00 0.00
	CHANNELS 6 Xposition Yposition Zposition Xrotation Yrotation Zrotation
	JOINT Abdomen
	{
		OFFSET 0.00000 0.03937 0.00000
		CHANNELS 3 Xrotation Zrotation Yrotation
		JOINT Chest
		{
			OFFSET 0.00000 8.42896 0.00000
			CHANNELS 3 Xrotation Zrotation Yrotation
			JOINT Neck
			{
				OFFSET 0.00000 7.29157 0.00000
				CHANNELS 3 Xrotation Zrotation Yrotation
				JOINT Head_comp
				{
					OFFSET 0.00000 4.22110 0.00000
					CHANNELS 3 Xrotation Yrotation Zrotation
					End Site
					{
						OFFSET 0.00000 4.22110 0.00000
					}
				}
			}
			JOINT Left_Collar
			{
				OFFSET 0.00000 7.29157 0.00000
				CHANNELS 2 Yrotation Zrotation
				JOINT Left_Shoulder
				{
					OFFSET 5.90550 0.00000 0.00000
					CHANNELS 3 Xrotation Yrotation Zrotation
					JOINT Left_Forearm
					{
						OFFSET 11.59585 0.00000 0.00000
						CHANNELS 2 Yrotation Xrotation
						JOINT Left_Hand
						{
							OFFSET 8.38509 0.00000 0.00000
							CHANNELS 2 Zrotation Yrotation
							JOINT L1ProxPhalanx
							{
								OFFSET 1.32642 0.01652 -0.91353
								CHANNELS 3 Yrotation Zrotation Xrotation
								JOINT L1MidPhalanx
								{
									OFFSET 0.56037 -0.04452 -1.10949
									CHANNELS 1 Zrotation
									JOINT L1DistPhalanx
									{
										OFFSET 0.56894 -0.31394 -0.93677
										CHANNELS 1 Zrotation
										End Site
										{
											OFFSET 0.15316 0.30870 -1.10710
										}
									}
								}
							}
						    JOINT L2ProxPhalanx
							{
								OFFSET 1.09197 2.42158 -0.70498
								CHANNELS 2 Yrotation Zrotation
								JOINT L2MidPhalanx
								{
									OFFSET 0.54914 1.69807 0.00037
									CHANNELS 1 Zrotation
									JOINT L2DistPhalanx
									{
										OFFSET 0.34223 0.98477 -0.13890
										CHANNELS 1 Zrotation
										End Site
										{
											OFFSET 0.30414 0.90123 -0.07454
										}
									}
								}
							}
							JOINT L3ProxPhalanx
							{
								OFFSET 0.20570 2.50174 -0.52444
								CHANNELS 2 Yrotation Zrotation
								JOINT L3MidPhalanx
								{
									OFFSET -0.25811 1.79891 -0.09553
									CHANNELS 1 Zrotation
									JOINT L3DistPhalanx
									{
										OFFSET -0.15680 1.09225 -0.05298
										CHANNELS 1 Zrotation
										End Site
										{
											OFFSET -0.15297 1.06215 -0.02141
										}
									}
								}
							}
							JOINT L4ProxPhalanx
							{
								OFFSET -0.68298 2.32110 -0.37433
								CHANNELS 2 Yrotation Zrotation
								JOINT L4MidPhalanx
								{
									OFFSET -0.56320 1.55045 -0.08792
									CHANNELS 1 Zrotation
									JOINT L4DistPhalanx
									{
										OFFSET -0.34522 0.95085 -0.05080
										CHANNELS 1 Zrotation
										End Site
										{
											OFFSET -0.35953 0.99671 -0.01102
										}
									}
								}
							}
							JOINT L5ProxPhalanx
							{
								OFFSET -1.60546 2.01050 -0.41468
								CHANNELS 2 Yrotation Zrotation
								JOINT L5MidPhalanx
								{
									OFFSET -0.81697 0.78962 -0.37932
									CHANNELS 1 Zrotation
									JOINT L5DistPhalanx
									{
										OFFSET -0.51445 0.51600 -0.16745
										CHANNELS 1 Zrotation
										End Site
										{
											OFFSET -0.66687 0.68407 -0.15932
										}
									}
								}
							}
						}
					}
				}
			}
			JOINT Right_Collar
			{
				OFFSET 0.00000 7.29157 0.00000
				CHANNELS 2 Yrotation Zrotation
				JOINT Right_Shoulder
				{
					OFFSET -5.90550 0.00000 0.00000
					CHANNELS 3 Xrotation Yrotation Zrotation
					JOINT Right_Forearm
					{
						OFFSET -11.59585 -0.00000 0.00000
						CHANNELS 2 Yrotation Xrotation
						JOINT Right_Hand
						{
							OFFSET -8.38509 -0.00000 0.00000
							CHANNELS 2 Zrotation Yrotation
							JOINT R1ProxPhalanx
							{
								OFFSET -1.27353 -0.34685 -0.51300
								CHANNELS 3 Yrotation Zrotation Xrotation
								JOINT R1MidPhalanx
								{
									OFFSET -0.97380 1.27673 -0.24634
									CHANNELS 1 Zrotation
									JOINT R1DistPhalanx
									{
										OFFSET -0.70681 0.85176 -0.10722
										CHANNELS 1 Zrotation
										End Site
										{
											OFFSET -0.60213 0.74049 -0.11612
										}
									}
								}
							}
						    JOINT R2ProxPhalanx
							{
								OFFSET -1.68547 2.46874 -0.24056
								CHANNELS 2 Yrotation Zrotation
								JOINT R2MidPhalanx
								{
									OFFSET -0.10277 1.47086 -0.45732
									CHANNELS 1 Zrotation
									JOINT R2DistPhalanx
									{
										OFFSET -0.08662 0.93830 -0.07738
										CHANNELS 1 Zrotation
										End Site
										{
											OFFSET -0.07343 0.79543 -0.06560
										}
									}
								}
							}
							JOINT R3ProxPhalanx
							{
								OFFSET -0.85407 2.65552 -0.00744
								CHANNELS 2 Yrotation Zrotation
								JOINT R3MidPhalanx
								{
									OFFSET -0.20884 1.70284 -0.28882
									CHANNELS 1 Zrotation
									JOINT R3DistPhalanx
									{
										OFFSET -0.13336 1.10092 -0.23410
										CHANNELS 1 Zrotation
										End Site
										{
											OFFSET -0.11503 0.94711 -0.19274
										}
									}
								}
							}
							JOINT R4ProxPhalanx
							{
								OFFSET 0.20418 2.54564 0.23484
								CHANNELS 2 Yrotation Zrotation
								JOINT R4MidPhalanx
								{
									OFFSET -0.04892 1.76626 -0.37155
									CHANNELS 1 Zrotation
									JOINT R4DistPhalanx
									{
										OFFSET -0.02641 0.95308 -0.21249
										CHANNELS 1 Zrotation
										End Site
										{
											OFFSET -0.02537 0.91606 -0.19270
										}
									}
								}
							}
							JOINT R5ProxPhalanx
							{
								OFFSET 0.88895 2.32064 0.25776
								CHANNELS 2 Yrotation Zrotation
								JOINT R5MidPhalanx
								{
									OFFSET 0.43367 1.29723 -0.28031
									CHANNELS 1 Zrotation
									JOINT R5DistPhalanx
									{
										OFFSET 0.24248 0.73091 -0.16650
										CHANNELS 1 Zrotation
										End Site
										{
											OFFSET 0.26427 0.78713 -0.16490
										}
									}
								}
							}
						}
					}
				}
			}
		}
	}
	JOINT Left_Thigh
	{
		OFFSET 3.93700 0.00000 0.00000
		CHANNELS 3 Xrotation Zrotation Yrotation
		JOINT Left_Shin
		{
			OFFSET 0.00000 -18.44568 0.00000
			CHANNELS 1 Xrotation
			JOINT Left_Foot
			{
				OFFSET -0.00000 -15.49322 0.19672
				CHANNELS 2 Xrotation Zrotation
				JOINT Left_Toe
				{
					OFFSET 0.00000 -0.82039 5.66291
					CHANNELS 1 Xrotation
					End Site
					{
						OFFSET 0.00000 0.00000 1.71250
					}
				}
			}
		}
	}
	JOINT Right_Thigh
	{
		OFFSET -3.93700 0.00000 0.00000
		CHANNELS 3 Xrotation Zrotation Yrotation
		JOINT Right_Shin
		{
			OFFSET -0.00000 -18.44568 -0.00000
			CHANNELS 1 Xrotation
			JOINT Right_Foot
			{
				OFFSET -0.00000 -15.49322 0.19672
				CHANNELS 2 Xrotation Zrotation
				JOINT Right_Toe
				{
					OFFSET 0.00000 -0.96513 5.62412
					CHANNELS 1 Xrotation
					End Site
					{
						OFFSET 0.00000 0.00000 1.44139
					}
				}
			}
		}
	}
}
MOTION
Frames: 15
Frame Time: 0.008333
5.5608 37.8431 -10.3793 7.4887 7.5097 2.2696 -14.3959 -1.998 0.9198 9.7277 5.4607 0.9835 24.3761 3.4762 11.9983 -19.7825 17.1406 -12.6276 -0.5137 8.9787 -11.335 -27.1311 -76.0473 -119.9513 -36.9003 -76.6675 -90.0 -28.4686 73.6061 66.2507 4.3609 -25.5673 -1.4064 1.0739 1.0661 -0.1139 -1.53 -0.4644 -0.066 0.0108 -11.2002 -9.4606 -1.303 0.1921 11.1808 -9.9081 0.3225 0.0203 2.9455 -10.4003 -34.3723 2.8884 84.55 99.4751 -39.9284 86.1885 87.9258 -79.2388 177.0167 174.9285 -3.7669 6.4092 -48.102 -36.7368 -2.0973 -1.3324 -53.0346 -39.9954 -2.816 0.2658 -77.9725 -31.5424 -0.0481 -0.005 -76.1136 89.4786 3.0414 2.9102 -15.8297 5.2445 8.5984 28.8904 -4.3774 -12.9979 7.8547 -14.6901 -7.6295 -25.9277 29.0208 -10.0269 14.1253 8.3253 
5.5524 37.8581 -10.378 7.679 7.525 2.2437 -14.3608 -1.9289 0.9267 9.3276 5.2871 0.9392 24.4869 3.4702 12.0901 -19.9171 17.0888 -12.4664 -0.4414 8.8071 -10.5896 -26.7013 -75.4261 -119.5529 -37.638 -76.5692 -90.0 -28.2825 72.8488 65.9886 4.3737 -25.6667 -1.535 1.1913 0.8631 -0.0825 -1.9273 -0.5042 -0.1043 0.0281 -11.7565 -9.7929 -1.3005 0.1817 11.1061 -10.488 0.3718 0.1312 2.9343 -10.3928 -35.3492 1.2719 84.0718 98.0807 -41.3225 86.4253 88.0608 -78.9895 175.3455 172.9941 -3.9228 6.7865 -48.5436 -37.0998 -1.9833 -1.4131 -53.2185 -39.8052 -2.8449 0.2622 -77.8226 -29.5908 -0.0508 -0.0051 -76.0474 89.6331 2.8482 2.7529 -15.9282 5.3193 8.6694 28.7132 -4.2747 -12.9516 7.863 -14.8103 -7.6086 -25.9513 28.8857 -9.9087 14.1592 8.2555 
5.5455 37.8727 -10.3776 7.8208 7.6012 2.2294 -14.2629 -1.8533 0.8926 8.9362 5.095 0.8532 24.5015 3.4895 12.1027 -19.9093 17.0843 -12.3822 -0.3803 8.5969 -9.8123 -26.2405 -74.7064 -119.1752 -38.5082 -76.5772 -90.0 -28.2052 72.2111 65.9904 4.4063 -25.4982 -1.7725 1.4182 0.8111 -0.1236 -2.2544 -0.513 -0.1155 0.0227 -12.2505 -10.0848 -1.2847 0.1719 11.053 -11.2591 0.3538 -0.019 3.0183 -10.5206 -35.8722 -0.07 83.6037 96.8011 -41.9526 86.8591 88.3074 -78.7255 171.0624 168.7847 -3.5864 6.6062 -48.2548 -35.8285 -2.271 -1.3592 -53.5685 -39.3522 -2.8987 0.2602 -77.7726 -29.0093 -0.0482 -0.0062 -76.1045 87.9411 2.8446 2.7966 -15.9974 5.3353 8.6692 28.5289 -4.156 -12.928 7.8877 -14.878 -7.6419 -26.0875 28.7932 -9.8202 14.1819 8.1806 
5.5361 37.8895 -10.3761 8.0101 7.6297 2.1739 -14.2272 -1.7672 0.8614 8.5796 4.978 0.7829 24.5346 3.3872 12.2388 -20.0354 16.966 -12.2687 -0.3246 8.3778 -9.0165 -25.7943 -74.0046 -118.8393 -38.9845 -76.4557 -90.0 -28.2451 72.2227 66.1041 4.4065 -25.3143 -1.809 1.4542 0.7175 -0.1572 -2.6097 -0.571 -0.1217 0.0245 -12.5258 -10.343 -1.2574 0.1648 11.1351 -11.8875 0.4373 -0.005 3.0757 -10.6113 -36.4582 -0.8933 83.0383 95.5142 -42.1855 87.3483 88.508 -80.4404 175.2313 172.5313 -4.4213 7.3891 -49.1649 -36.8211 -2.0739 -1.49 -54.4023 -40.4386 -2.7581 0.2535 -77.6527 -29.8152 -0.0389 -0.0033 -76.3136 86.0325 2.9584 2.5884 -16.0863 5.3926 8.7123 28.3118 -4.0471 -12.8994 7.8987 -14.9297 -7.5456 -26.2279 28.4863 -9.6951 14.1147 8.1504 
5.5234 37.9056 -10.3725 8.1789 7.7043 2.1461 -14.1856 -1.7087 0.832 8.2521 4.8368 0.7153 24.5301 3.3764 12.2727 -20.1311 16.9326 -12.2112 -0.2687 8.1353 -8.2826 -25.3761 -73.2195 -118.522 -39.4697 -76.3986 -90.0 -28.3796 72.2657 66.2644 4.4166 -25.6032 -1.6813 1.3256 0.5736 -0.1675 -2.8167 -0.622 -0.1189 0.019 -12.7089 -10.5187 -1.223 0.1612 11.1636 -12.4802 0.4302 0.0413 3.1002 -10.6506 -36.9762 -1.3316 82.3888 94.5693 -42.5517 87.5127 88.5964 -80.7678 176.9755 173.9984 -4.474 7.4613 -49.5225 -37.278 -2.0395 -1.457 -54.8578 -41.2851 -2.6629 0.2473 -77.2455 -29.9208 -0.0337 -0.0028 -76.3682 84.1833 2.8876 2.5336 -16.1391 5.4025 8.7206 28.0439 -3.9164 -12.8691 7.9003 -14.985 -7.5272 -26.3506 28.2944 -9.6081 14.094 8.1518 
5.5086 37.9199 -10.369 8.3415 7.7738 2.1509 -14.1127 -1.662 0.7859 7.9344 4.6419 0.6259 24.4665 3.4086 12.2847 -20.2108 16.9991 -12.1901 -0.2377 7.9947 -7.4053 -24.9365 -72.475 -118.2152 -39.691 -76.4033 -90.0 -28.6428 72.1217 66.3027 4.4427 -25.5197 -2.1177 1.7652 0.7187 -0.3085 -3.1918 -0.6935 -0.1178 0.0192 -12.7655 -10.5455 -1.1883 0.1569 11.1443 -12.4889 0.4785 0.0505 3.1181 -10.6456 -37.2775 -1.3177 81.7553 93.963 -43.0949 87.5933 88.6435 -81.8385 178.4782 175.203 -5.0879 7.7857 -49.683 -36.8655 -2.128 -1.3869 -55.2713 -41.4198 -2.6375 0.2463 -76.9611 -29.3773 -0.0267 -0.0008 -76.2515 80.5591 2.9443 2.6644 -16.1867 5.4121 8.7454 27.7889 -3.7844 -12.8374 7.9105 -15.0374 -7.5288 -26.4527 28.1012 -9.5496 14.061 8.1597 
5.4942 37.9328 -10.3654 8.5001 7.8025 2.1263 -14.0739 -1.6028 0.7382 7.7219 4.5078 0.5467 24.3279 3.3942 12.2901 -20.3346 16.9939 -12.1976 -0.2141 7.9019 -6.5185 -24.4664 -71.7979 -118.0252 -39.8064 -76.2901 -90.0 -29.0259 72.2749 66.3125 4.4532 -25.5523 -2.1067 1.7543 0.6404 -0.2808 -3.3798 -0.7392 -0.1061 0.0097 -12.7745 -10.557 -1.1528 0.1572 11.077 -12.6915 0.478 0.0484 3.066 -10.5621 -37.7788 -0.8776 81.0802 93.6039 -43.4691 87.5566 88.6249 -80.5074 173.7502 170.1977 -4.7442 7.5842 -49.8607 -37.1783 -2.0558 -1.5151 -55.4957 -41.6106 -2.6104 0.2494 -76.4556 -28.9072 -0.0275 -0.0042 -76.2418 78.7616 2.8554 2.4666 -16.25 5.4506 8.7858 27.5902 -3.6793 -12.8131 7.9156 -15.1028 -7.5046 -26.519 27.942 -9.4675 14.0077 8.0914 
5.4791 37.9447 -10.3605 8.6733 7.8424 2.1163 -14.0566 -1.5333 0.6859 7.5002 4.3528 0.4588 24.2254 3.3665 12.3469 -20.4699 17.0054 -12.1754 -0.1812 7.7009 -5.6885 -24.0074 -70.9574 -117.7855 -39.8386 -76.3574 -90.0 -28.7457 71.9849 66.4673 4.4386 -25.5311 -2.181 1.829 0.6413 -0.2673 -3.3242 -0.7324 -0.1247 0.0201 -12.7848 -10.5285 -1.1166 0.1551 11.091 -12.1003 0.547 0.0534 3.0152 -10.453 -38.0503 -0.1664 80.498 93.6186 -43.9027 87.3889 88.5225 -82.2003 177.9408 174.4344 -5.4902 7.9262 -50.1436 -37.3227 -2.0369 -1.4799 -55.5426 -41.4532 -2.6318 0.2482 -76.4608 -28.5394 -0.025 -0.0027 -76.0197 78.114 2.7333 2.432 -16.314 5.4495 8.8175 27.3581 -3.5725 -12.7897 7.9112 -15.1757 -7.4983 -26.6177 27.7773 -9.4177 13.9565 8.0697 
5.4615 37.9542 -10.3556 8.8374 7.8199 2.0087 -14.0341 -1.3725 0.6178 7.3322 4.2191 0.3522 24.0532 3.3166 12.4027 -20.5763 17.0092 -12.1681 -0.1567 7.5515 -4.8721 -23.4242 -70.2089 -117.5672 -40.0669 -76.5435 -90.0 -28.8499 72.0357 66.592 4.4385 -25.3789 -2.2927 1.9412 0.6685 -0.3971 -3.6057 -0.797 -0.1208 0.0171 -12.759 -10.5314 -1.075 0.1503 11.0915 -12.6652 0.5047 0.092 3.0079 -10.3967 -38.0522 0.7522 80.0681 93.8618 -43.995 87.2392 88.4413 -82.0301 -178.024 178.6686 -4.7719 7.7902 -49.9566 -37.2132 -2.0565 -1.588 -55.4484 -41.1862 -2.6573 0.2482 -76.5834 -28.7486 -0.0228 -0.0028 -76.009 76.629 2.5027 2.749 -16.3416 5.5563 8.8801 27.0741 -3.6094 -12.7418 8.2595 -15.2029 -7.3418 -26.7141 27.4927 -9.3273 13.8939 8.0615 
5.4425 37.9653 -10.3497 8.9714 7.8067 2.0504 -13.9919 -1.3469 0.5576 7.1579 4.0831 0.2661 23.9735 3.3202 12.4369 -20.7257 17.1036 -12.235 -0.1335 7.3954 -4.0952 -22.833 -69.4647 -117.3047 -40.4862 -76.8628 -90.0 -28.9099 71.945 66.5544 4.4519 -25.353 -2.5984 2.2523 0.5703 -0.2985 -4.1927 -0.8843 -0.1111 0.0173 -13.0068 -10.6936 -1.0699 0.1441 11.0544 -13.2867 0.5355 0.0743 2.9369 -10.2495 -38.1127 1.9331 79.661 94.3999 -44.2442 87.1493 88.3807 -80.3975 170.3847 166.3942 -5.4558 7.6162 -49.894 -37.1125 -2.0707 -1.6051 -55.6862 -41.6882 -2.5767 0.2502 -76.2648 -29.1213 -0.0245 -0.0037 -75.9557 74.0215 2.7462 2.4993 -16.4025 5.5386 8.9555 26.9631 -3.414 -12.7497 7.9516 -15.2486 -7.3671 -26.7374 27.3405 -9.3027 13.86 8.02 
5.4213 37.973 -10.3424 9.1059 7.7993 2.0735 -13.9594 -1.3341 0.4584 7.0501 3.9985 0.1508 23.8323 3.2632 12.524 -20.9548 17.1304 -12.266 -0.0862 7.1823 -3.5379 -22.1888 -68.6717 -117.1198 -41.13 -77.162 -90.0 -28.9923 71.6481 66.5573 4.464 -25.3883 -2.9018 2.5601 0.6247 -0.3468 -4.5897 -0.9572 -0.1177 0.0208 -13.488 -11.098 -1.0662 0.1361 11.0481 -14.1307 0.5508 0.0847 2.921 -10.1829 -37.9063 3.2114 79.4047 95.1777 -44.2523 87.0881 88.3549 -80.6893 170.9092 167.0891 -5.3366 7.5068 -50.0443 -37.0475 -2.0844 -1.5531 -55.8151 -41.7907 -2.5164 0.2431 -76.0687 -29.4095 -0.0241 -0.004 -75.8375 72.1729 2.9007 2.3765 -16.4087 5.516 9.0311 26.7197 -3.3039 -12.7276 7.8975 -15.2955 -7.3854 -26.7688 27.2116 -9.3016 13.8124 7.9942 
5.3979 37.9773 -10.3328 9.2344 7.7774 2.0751 -13.9392 -1.3001 0.37 6.9474 3.9046 0.0433 23.76 3.2301 12.5722 -21.2037 17.1417 -12.3259 -0.0769 7.1277 -2.8129 -21.539 -68.0999 -116.8767 -41.7241 -77.5217 -90.0 -29.1224 71.8736 66.5611 4.4726 -25.7832 -2.9925 2.657 0.5214 -0.3177 -4.7988 -0.9758 -0.1397 0.0283 -14.2058 -11.6729 -1.1005 0.1274 10.9549 -15.7379 0.5658 0.1511 2.8687 -10.0727 -37.7587 4.6426 79.2183 96.1224 -44.2399 87.2112 88.4019 -81.4379 172.4375 168.6292 -5.5695 7.4163 -49.7136 -36.7532 -2.1508 -1.6014 -55.5801 -41.555 -2.58 0.2461 -76.033 -30.4329 -0.0214 -0.0042 -75.8561 71.9445 2.813 2.4319 -16.4332 5.5072 9.0891 26.5319 -3.2444 -12.7304 7.8946 -15.3351 -7.3706 -26.7678 27.087 -9.3119 13.791 7.9814 
5.3735 37.98 -10.3245 9.3711 7.7128 1.9605 -13.9512 -1.1719 0.311 6.8786 3.8826 -0.0327 23.657 3.1824 12.627 -21.4241 17.1304 -12.3591 -0.0531 7.0252 -2.3276 -20.9883 -67.5401 -116.5943 -42.3365 -77.8339 -90.0 -28.7545 71.263 66.3985 4.475 -25.942 -3.0038 2.6798 0.3895 -0.2866 -5.0946 -0.9788 -0.1308 0.0185 -14.9164 -12.1522 -1.1116 0.1095 10.8679 -17.6061 0.5461 0.1608 2.8109 -9.9652 -37.5362 6.1586 79.0163 97.3568 -44.3735 87.2468 88.4227 -81.5802 173.2208 169.2322 -5.6691 7.5448 -49.8179 -36.7238 -2.1777 -1.5964 -56.2538 -42.7019 -2.3679 0.2342 -75.53 -30.8187 -0.025 -0.0056 -75.8185 70.3527 2.959 2.3087 -16.4928 5.6894 9.1686 26.4113 -3.3413 -12.6801 8.242 -15.3516 -7.1998 -26.803 26.852 -9.2676 13.7292 7.9487 
5.3461 37.9824 -10.318 9.4813 7.6402 2.0265 -13.9324 -1.2604 0.2493 6.8307 3.9431 -0.0805 23.5864 3.0892 12.6863 -21.6799 17.0334 -12.4099 -0.0677 6.9932 -1.5704 -20.4252 -67.1063 -116.3131 -43.0023 -78.18 -90.0 -28.032 71.192 65.9622 4.4342 -25.8561 -3.3142 3.0134 0.4224 -0.2971 -5.2263 -0.9664 -0.1369 0.0196 -15.2512 -12.2558 -1.0467 0.1054 10.7707 -19.8394 0.5664 0.2219 2.7565 -9.8601 -37.25 7.8106 78.8615 98.8477 -44.7179 87.0717 88.3577 -80.9958 171.2716 167.2002 -5.4804 7.1855 -49.407 -36.1304 -2.3314 -1.5849 -56.1881 -42.4092 -2.3891 0.24 -75.6137 -31.827 -0.0199 -0.0039 -75.7058 69.6212 2.8328 2.4677 -16.5508 5.6758 9.279 26.3729 -3.1908 -12.7098 7.9154 -15.4084 -7.2094 -26.7211 26.7436 -9.3144 13.7266 7.9436 
5.3173 37.9839 -10.3091 9.5612 7.5043 2.0514 -13.8948 -1.2857 0.2378 6.7887 3.9819 -0.0852 23.486 3.0127 12.7536 -21.9154 16.9308 -12.3797 -0.0664 6.9312 -0.9991 -19.9786 -66.6261 -116.0402 -43.6072 -78.4311 -90.0 -27.9296 71.3072 65.8263 4.4299 -25.8712 -3.513 3.2296 0.4749 -0.3623 -5.3418 -0.9572 -0.1444 0.0187 -15.5009 -12.3117 -1.0196 0.0959 10.6441 -21.4573 0.61 0.1835 2.7019 -9.7556 -36.9074 9.4869 78.7586 100.4417 -45.0174 87.0003 88.3093 -82.0099 173.7424 169.9211 -5.4751 7.2847 -49.7589 -36.5714 -2.1466 -1.7035 -55.9424 -41.8932 -2.5141 0.2568 -75.4906 -31.9719 -0.0201 -0.0041 -75.6168 68.8148 2.8641 2.523 -16.5495 5.7204 9.4134 26.2938 -3.1435 -12.7302 7.8745 -15.4477 -7.1783 -26.6295 26.6585 -9.3489 13.6632 7.9464 
